<svg width="212" height="52" viewBox="0 0 212 52" fill="none" xmlns="http://www.w3.org/2000/svg">
<path fill-rule="evenodd" clip-rule="evenodd" d="M4.64258 13.8601H6.87567V29.7921H4.64258V13.8601ZM153.008 28.6762H156.853V25.9637H157.882V28.6762V29.7214V32.293H156.853V29.7214H153.008V28.6762ZM205.678 25.9637H206.797V31.4923H211.179V32.293H206.797H205.678V31.4923V25.9637ZM151.249 25.9637H152.136V32.293H151.249V25.9637ZM186.339 25.9637H187.53V32.293H186.339V25.9637ZM188.762 25.9637H191.4H192.591H195.227V27.0014H192.591V32.293H191.4V27.0014H188.762V25.9637ZM177.895 25.9637H179.014H183.123C184.392 25.9637 185.43 26.9961 185.43 28.2578C185.43 29.5193 184.392 30.5514 183.123 30.5514H179.93V29.5429H183.123C183.832 29.5429 184.416 28.9625 184.416 28.2578C184.416 27.5526 183.832 26.9722 183.123 26.9722H179.014V29.1284V29.5429V30.5514V32.293H177.895V30.5514V25.9637ZM200.641 25.2676L201.237 26.2198L205.035 32.293H203.844L202.769 30.5759H199.693L200.249 29.6874H202.214L200.641 27.172L197.44 32.293H196.249L200.046 26.2198L200.641 25.2676ZM176.023 25.9022H171.016C169.888 25.9022 168.964 26.8203 168.964 27.9427C168.964 29.0651 169.888 29.9836 171.016 29.9836H174.752C176.05 29.9836 175.677 31.3339 174.716 31.3339H169.163V32.293H174.716C175.845 32.293 176.769 31.3744 176.769 30.252C176.769 29.1296 175.844 28.579 174.716 28.579H171.184C169.446 28.579 169.928 26.861 171.016 26.861H176.023V25.9022ZM162.2 25.9637H165.177C166.712 25.9637 167.967 27.2127 167.967 28.7387V29.5181C167.967 31.0441 166.712 32.293 165.177 32.293H162.2C160.665 32.293 159.409 31.0441 159.409 29.5181V28.7387C159.409 27.2127 160.665 25.9637 162.2 25.9637ZM162.2 26.9233H165.177C166.181 26.9233 167.003 27.7397 167.003 28.7387V29.5181C167.003 30.5169 166.181 31.3334 165.177 31.3334H162.2C161.195 31.3334 160.374 30.5169 160.374 29.5181V28.7387C160.374 27.7397 161.195 26.9233 162.2 26.9233ZM130.933 29.7921H134.497L130.782 25.8747H127.218L130.933 29.7921ZM115.475 13.8601H118.289H128.635C131.828 13.8601 134.441 16.4583 134.441 19.6343C134.441 22.8099 131.828 25.4082 128.635 25.4082H120.596V22.8697H128.635C130.419 22.8697 131.889 21.4087 131.889 19.6343C131.889 17.8596 130.419 16.3986 128.635 16.3986H118.289V21.8263V22.8697V25.4082V29.7921H115.475V25.4082V13.8601ZM72.0014 15.6502L77.4967 26.6257L82.9908 15.6502C84.1593 13.3169 86.3205 13.5197 86.8375 15.4149L90.0185 29.7921H87.1701L84.5925 18.141L79.4491 28.4148C78.2766 30.7574 76.7648 30.8548 75.5699 28.4676L70.4007 18.141L67.8225 29.7921H64.9737L68.1553 15.4149C68.6725 13.5197 70.8337 13.3169 72.0014 15.6502ZM9.07017 20.6883H18.7502V13.8601H21.3391V20.6883V23.3188V29.7921H18.7502V23.3188H9.07017V20.6883ZM31.1318 20.6883H40.2487V23.3188H31.1318V20.6883ZM29.4809 27.7773H41.074V29.7921H29.4809H27.2293V27.7773V16.2296V13.8601H29.4809H41.074V16.2296H29.4809V27.7773ZM46.4395 13.8601H49.2531V27.7773H60.2841V29.7921H49.2531H46.4395V27.7773V13.8601Z" fill="white"/>
<path fill-rule="evenodd" clip-rule="evenodd" d="M99.0791 0.931641C100.187 0.931641 101.086 1.82539 101.086 2.92814C101.086 4.03049 100.187 4.92425 99.0791 4.92425C97.9702 4.92425 97.0716 4.03049 97.0716 2.92814C97.0716 1.82539 97.9702 0.931641 99.0791 0.931641ZM0 35.1097L88.3286 34.8437C90.4745 34.8371 90.4468 34.8266 91.3332 36.3539L92.8379 38.9304L97.6496 10.3677C98.2499 6.80372 100.208 7.51285 100.557 10.5366L105.024 49.3181L108.398 32.354C108.885 29.8797 110.22 28.7957 111.717 31.4904C112.923 33.2962 113.113 34.7293 115.027 34.7406L136.698 34.8667C137.918 34.8737 137.963 34.965 138.424 33.8412L140.237 29.4281C141.078 27.378 142.692 27.3949 143.32 29.6244L144.72 34.6023C146.453 34.7965 147.38 34.7328 147.971 36.6803L149.448 41.5422L150.631 37.5527C151.315 35.2478 152.781 34.7097 155.022 34.7371L212 35.5244L155.323 36.3046C153.078 36.3007 152.537 36.7728 152.148 38.0471L151.035 41.6822C150.364 43.875 148.793 44.184 147.924 41.5914C147.559 40.5009 147.084 39.0718 146.787 38.178C146.261 36.5983 146.496 36.439 144.847 36.3653C143.382 36.2994 143.573 36.1402 143.17 34.7097L141.748 29.662L140.095 34.4294C139.592 35.88 138.039 36.4587 136.623 36.4417L115.057 36.1838C113.107 36.154 112.752 36.0179 111.761 34.3854C111.148 33.3748 110.187 31.8562 110.187 31.8562L106.786 48.1965C105.928 52.3143 103.799 53.2071 103.271 48.4602L98.9919 9.97663L94.4206 38.6266C93.9919 41.3165 92.8528 42.2984 91.3626 39.5028L90.4173 37.7281C89.635 36.2596 89.9193 36.4228 88.186 36.4228L0 35.1097Z" fill="#E31E24"/>
</svg>
